<svg xmlns="http://www.w3.org/2000/svg" viewBox="0 0 800 800" role="img" aria-label="Icona leoncino">
  <!-- Palette (presa dall'immagine) -->
  <!-- sfondo #292929, verde #6A8B58, criniera #B4671D, viso #F9BA4C, dettagli #2D1408 -->
  <defs>
    <style>
      .bg{fill:#292929}
      .ring{fill:#6A8B58}
      .mane{fill:#B4671D}
      .face{fill:#F9BA4C}
      .detail{fill:#2D1408;stroke:#2D1408}
      .light{fill:#F7CD67}
    </style>
  </defs>

  <!-- Sfondo -->
  <rect class="bg" width="800" height="800" rx="24"/>

  <!-- Cerchio verde -->
  <circle class="ring" cx="400" cy="400" r="320"/>

  <!-- Collo -->
  <path class="face" d="M520,650c0,34-18,60-40,60h-40V520h40c22,0,40,36,40,130Z"/>

  <!-- Criniera -->
  <circle class="mane" cx="400" cy="400" r="270"/>

  <!-- Tacche sulla criniera -->
  <rect class="detail" x="392" y="170" width="16" height="44" rx="8"/>
  <rect class="detail" x="392" y="586" width="16" height="44" rx="8"/>
  <rect class="detail" width="36" height="18" rx="9" transform="translate(0 0) rotate(-18 170 400)" x="152" y="391"/>
  <rect class="detail" width="36" height="18" rx="9" transform="translate(0 0) rotate(18 630 400)"  x="612" y="391"/>

  <!-- Testa -->
  <circle class="face" cx="400" cy="420" r="210"/>

  <!-- Orecchie -->
  <g>
    <circle class="face" cx="290" cy="290" r="56"/>
    <circle class="face" cx="510" cy="290" r="56"/>
    <circle class="light" cx="290" cy="290" r="30"/>
    <circle class="light" cx="510" cy="290" r="30"/>
  </g>

  <!-- Occhi (archetti) -->
  <g fill="none" stroke="#2D1408" stroke-linecap="round" stroke-width="18">
    <path d="M300 385q36-38 72 0"/>
    <path d="M428 385q36-38 72 0"/>
  </g>

  <!-- Naso -->
  <path class="detail" d="M400 410l42 40a10 10 0 0 1-7 17h-70a10 10 0 0 1-7-17l42-40z"/>

  <!-- Bocca -->
  <g fill="none" stroke="#2D1408" stroke-linecap="round" stroke-width="16">
    <path d="M400 450q0 30-30 30"/>
    <path d="M400 450q0 30 30 30"/>
  </g>

  <!-- Guance -->
  <ellipse class="light" cx="315" cy="465" rx="38" ry="24"/>
  <ellipse class="light" cx="485" cy="465" rx="38" ry="24"/>

  <!-- Baffi -->
  <g fill="none" stroke="#2D1408" stroke-linecap="round" stroke-width="14">
    <path d="M250 465h80"/>
    <path d="M240 495l100-18"/>
    <path d="M550 465h-80"/>
    <path d="M560 495l-100-18"/>
  </g>

  <!-- Leggera ombra sotto al muso per profondità -->
  <ellipse cx="400" cy="520" rx="160" ry="34" fill="#000" opacity=".06"/>
</svg>
